<?xml version="1.0"?>
<svg xmlns="http://www.w3.org/2000/svg" viewBox="0 0 64 64" width="512" height="512"><g id="Filled_outline" data-name="Filled outline"><path d="M18,8v6a4.267,4.267,0,0,0,1,3l5,5-3,3-4.879-4.879A8.349,8.349,0,0,1,14,15V8Z" style="fill:#50b4f8"/><path d="M50,34c0,8-5,27-15,27-9,0-20-18.85-20-31s9.85-13,22-13S50,21.85,50,34Z" style="fill:#dd3e46"/><path d="M37,17c-12.15,0-22,.85-22,13a27.651,27.651,0,0,0,.767,6.133A12.245,12.245,0,0,0,24,34c8-5,14-9,21-2,1.7,1.7,3.4,1.859,5,1.137C49.952,21.622,48.857,17,37,17Z" style="fill:#b11e48"/><path d="M35,3H32a8,8,0,0,0-8,8V34.809l6-3.674V11a2,2,0,0,1,2-2h3c1.1,0,2-1.343,2-3S36.1,3,35,3Z" style="fill:#50b4f8"/><ellipse cx="35" cy="6" rx="2" ry="3" style="fill:#2d75bb"/><path d="M51,16H46.743A12.025,12.025,0,0,0,46,15l4-4L47,8s-3.948,4.028-4,4V7H39v4.03c-5.053.3-9,2.859-9,5.97,0,3.314-.523,6,5,6,7,0,13,0,13-2,0-1,3-1,3-1Z" style="fill:#dd3e46"/><path d="M16.28,21.694A13.723,13.723,0,0,0,14,30c0,12.635,11.264,32,21,32,11.08,0,16-20.289,16-28,0-5.357-.149-9.75-1.685-12.817A8.1,8.1,0,0,1,51,21a1,1,0,0,0,1-1V16a1,1,0,0,0-1-1H47.414l3.293-3.293a1,1,0,0,0,0-1.414l-3-3A1,1,0,0,0,47,7H47a1,1,0,0,0-.709.3c-.773.788-1.595,1.622-2.286,2.318V7a1,1,0,0,0-1-1H39a1,1,0,0,0-1,1v3.114a12.64,12.64,0,0,0-7,2.839V11a1,1,0,0,1,1-1h3c1.682,0,3-1.757,3-4s-1.318-4-3-4H32a9.011,9.011,0,0,0-9,9v6.33c-.586.174-1.148.365-1.675.581l-1.618-1.618A3.3,3.3,0,0,1,19,14V8a1,1,0,0,0-1-1H14a1,1,0,0,0-1,1v7a9.325,9.325,0,0,0,2.413,5.827Zm22.78-9.666a1,1,0,0,0,.94-1V8h2v4a1,1,0,0,0,.523.879c.674.366.713.386,4.484-3.458L48.586,11l-3.293,3.293a1,1,0,0,0-.146,1.229,4.413,4.413,0,0,0,.437.573,1.8,1.8,0,0,1,.256.335,1,1,0,0,0,.9.57H50v2.042c-1.4.122-3,.562-2.989,1.919C46.378,22,39.531,22,35,22c-1.716,0-2.861-.279-3.405-.83A2.929,2.929,0,0,1,31,19.182V17C31,14.481,34.54,12.3,39.06,12.028Zm9.932,20.405a3.266,3.266,0,0,1-3.285-1.14c-5.073-5.072-9.78-4.731-14.707-2.471V23.206A8.087,8.087,0,0,0,35,24c6.2,0,10.845,0,12.873-1.2C48.711,24.951,48.952,27.971,48.992,32.433ZM35,4c.408,0,1,.779,1,2s-.592,2-1,2-1-.779-1-2S34.592,4,35,4ZM25,28h2V26H25V24h2V22H25V14h2V12H25V11a7.008,7.008,0,0,1,7-7h.405a5.141,5.141,0,0,0,0,4H32a3,3,0,0,0-3,3V29.829c-1.309.71-2.639,1.52-4,2.367Zm-.47,6.848.506-.316c3.962-2.48,7.242-4.525,10.334-5.124-.627,1.609-1.54,4-2.174,5.849l-6.59,2.824.788,1.838,5.253-2.251L32.02,40.8l1.96.392.987-4.935c.735-2.194,2.007-5.47,2.617-7.019a9.778,9.778,0,0,1,6.12,2.925,19.092,19.092,0,0,0-1.96,4.866c-.265.068-4.544,1.2-5.693,4.651l1.9.632a5.649,5.649,0,0,1,3.333-3.008,24.221,24.221,0,0,0-.277,3.188L37.4,45.2l1.2,1.6,3.1-2.326a5.231,5.231,0,0,1-.6,4.079l1.79.894c1.815-3.632.708-5.924.114-6.777a19.875,19.875,0,0,1,2.235-9.153,4.914,4.914,0,0,0,3.747.96C48.8,42.29,43.911,60,35,60c-6.767,0-14.982-12.112-17.9-22.779a11.9,11.9,0,0,0,3.237-.472c.837,3.6,3.525,12.239,10.562,15.832a4.83,4.83,0,0,0,3.861,5.389l.486-1.94a2.916,2.916,0,0,1-2.313-3.589A3.811,3.811,0,0,1,38.4,51.8l1.2-1.6a5.675,5.675,0,0,0-7.849.567,14.116,14.116,0,0,1-4.22-3.435c1.641-.753,4.3-1.575,5.914-.5l1.11-1.664c-2.734-1.823-6.6-.277-8.264.544a29.691,29.691,0,0,1-4.055-9.651A17.859,17.859,0,0,0,24.53,34.848ZM23,19.425v14A11.5,11.5,0,0,1,16.607,35.2,25.379,25.379,0,0,1,16,30C16,24.367,18.176,21.06,23,19.425ZM15,9h2v5a5.322,5.322,0,0,0,1.293,3.707l1.141,1.141A11.188,11.188,0,0,0,17.616,20.2l-.789-.789A7.418,7.418,0,0,1,15,15Z"/><rect x="18" y="27" width="2" height="2"/><rect x="19" y="31" width="2" height="2"/></g></svg>
